<svg xmlns="http://www.w3.org/2000/svg" width="63.727" height="99.132" viewBox="0 0 63.727 99.132"><defs><style>.a{opacity:0.16;}.b{fill:#fff;}</style></defs><g class="a" transform="translate(-7.875 -2.25)"><path class="b" d="M69.926,39.895,58.862,29.273a3.1,3.1,0,1,0-4.293,4.47l1.35,1.306H22.971l1.35-1.306a3.1,3.1,0,0,0-4.293-4.47L8.964,39.895a3.086,3.086,0,0,0-.089,4.381,3.031,3.031,0,0,0,2.235.951,3.086,3.086,0,0,0,2.146-.863l3.253-3.12H62.358l3.253,3.12a3.086,3.086,0,0,0,2.146.863,3.031,3.031,0,0,0,2.235-.951A3.066,3.066,0,0,0,69.926,39.895Z" transform="translate(0.283 56.154)"/><g transform="translate(7.875 2.25)"><path class="b" d="M57.662,5.79H53.9a3.551,3.551,0,0,0-3.54-3.54H29.117a3.551,3.551,0,0,0-3.54,3.54H22.258A14.179,14.179,0,0,0,7.875,19.731V71.952c0,7.811,31.864,14.383,31.864,14.383S71.6,79.763,71.6,71.952V19.731A13.8,13.8,0,0,0,57.662,5.79ZM39.739,73.058A10.621,10.621,0,1,1,50.36,62.437,10.624,10.624,0,0,1,39.739,73.058Zm21.242-35.4a3.551,3.551,0,0,1-3.54,3.54h-35.4a3.551,3.551,0,0,1-3.54-3.54V23.492a3.551,3.551,0,0,1,3.54-3.54h35.4a3.551,3.551,0,0,1,3.54,3.54Z" transform="translate(-7.875 -2.25)"/><path class="b" d="M29.353,25.979A6.749,6.749,0,1,1,22.6,19.23,6.749,6.749,0,0,1,29.353,25.979Z" transform="translate(9.259 34.208)"/></g></g></svg>